<?xml version="1.0" encoding="UTF-8"?>
<svg id="Layer_1" data-name="Layer 1" xmlns="http://www.w3.org/2000/svg" version="1.1" viewBox="0 0 500 500">
  <defs>
    <style>
      .cls-1 {
        fill: #bba67c;
      }

      .cls-1, .cls-2, .cls-3, .cls-4, .cls-5, .cls-6, .cls-7, .cls-8, .cls-9, .cls-10, .cls-11, .cls-12, .cls-13, .cls-14, .cls-15, .cls-16, .cls-17, .cls-18, .cls-19, .cls-20, .cls-21 {
        stroke-width: 0px;
      }

      .cls-2 {
        fill: #dfd6c3;
      }

      .cls-3 {
        fill: #c6b592;
      }

      .cls-4 {
        fill: #f8f6f2;
      }

      .cls-5 {
        fill: #dcd2bd;
      }

      .cls-6 {
        fill: #fdfdfd;
      }

      .cls-7 {
        fill: #c2af89;
      }

      .cls-8 {
        fill: #c0ad87;
      }

      .cls-9 {
        fill: #bfac85;
      }

      .cls-10 {
        fill: #b09767;
      }

      .cls-11 {
        fill: #d0c1a5;
      }

      .cls-12 {
        fill: #b39c6e;
      }

      .cls-13 {
        fill: #c8b796;
      }

      .cls-14 {
        fill: #fefefe;
      }

      .cls-15 {
        fill: #9e8044;
      }

      .cls-16 {
        fill: #b39c6d;
      }

      .cls-17 {
        fill: #ded4c0;
      }

      .cls-18 {
        fill: #242021;
      }

      .cls-19 {
        fill: #e7dfd1;
      }

      .cls-20 {
        fill: #231f20;
      }

      .cls-21 {
        fill: #fcfcfc;
      }
    </style>
  </defs>
  <path class="cls-14" d="M377.9,346.94c0,9.16-.16,18.33.09,27.48.08,2.99-.61,3.59-3.59,3.58-63.96-.11-127.91-.08-191.87-.08-19.15,0-38.31-.05-57.46.07-2.5.02-3.07-.57-3.06-3.06.1-31.98.06-63.96.06-95.94,3.16.59,2.7,3.45,3.1,5.47.91,4.52,1.56,9.1,2.86,13.53.34,2.74,1.52,5.27,1.8,6.78-.9-2.29-1.42-5.94-2.53-9.44-5.68-36.1-.42-69.55,23.86-98.37,4.19-4.98,8.74-9.59,13.99-13.47,1.4-1.03,2.91-2.9,4.76-1.3,1.52,1.31.36,3.13-.29,4.6-2.08,4.72-4.24,9.41-5.45,14.45-1.91,7.96-2.54,16.07-2.9,24.22-5.5,7.59-1.86,15.33.11,22.75,4.81,18.06,5.9,12.06-4.36,26.5-5.83,8.2-9.7,17.38-14.29,26.21-.86,1.65-.89,3.29.83,4.4,1.87,1.21,3.93.71,4.78-1.05,3.6-7.38,10.02-12.85,13.48-20.27.67-1.43,1.37-2.57,2.83-3.28,7.43-3.62,12.84-9.26,16.41-16.69.36-.76.71-1.63,1.43-2,11.9-6.03,20.5-16.55,31.82-23.37.57-.34,1.13-.7,1.69-1.07,2.93-1.92,4.98-1.15,6.28,2.01,2.49,6.05,6.69,11.09,9.9,16.71.16.29.35.57.57.82,1.76,2.02,3.72,4.71,6.57,2.73,2.68-1.86.85-4.55-.43-6.65-2.33-3.84-4.96-7.48-7.45-11.22-1.51-2.26-2.75-4.53-3.3-7.22-1.11.65-1.9,1.98-3.45,1.42-2.59-2.51-3.49-5.3-1.44-8.58,10.98-8.14,22.88-14.64,35.5-19.86,3.42-1.41,5.28.51,6.95,3.04,5.67,8.55,13.37,14.56,22.75,18.68,6.08,2.67,12.26,2.49,18.58,1.88,1.94-.19,3.99-.97,5.44,1.14,2.09,3.82,3,8.06,4.28,12.17.75,2.63,1.44,5.29,2.13,7.93.25,2.12.51,4.23.98,6.32-.6-2.66-.67-5.4-1.33-8.06-.83-2.29-1.12-4.74-1.99-7.02-1.16-4.07-2.31-8.15-4.1-12-.43-1.46.21-2.66,1.14-3.61,7.13-7.26,6.83-15.63,3.76-24.44-.22-.62-.44-1.25-.65-1.88-.39-2.61-3.08-4.64-1.95-7.64,2.27-1.07,3.34.86,4.56,2.01,4.48,4.26,7.99,9.31,11.27,14.53,2.53,3.78,4.4,7.92,6.32,12.02,2.1,4.21,3.57,8.66,4.88,13.16,1.04,3.83,1.89,7.71,2.94,11.54-1.16-4.12-1.96-8.34-3.15-12.45-1.32-4.74-3.09-9.3-5.27-13.7-1.78-3.97-3.72-7.85-6.16-11.47-19.26-31.46-46.8-50.32-83.72-54.6-31.39-3.64-59.22,5.07-83.5,25.13-20,16.52-32.09,37.81-37.42,63.1-.55,2.63.29,6.19-3.44,7.47,0-41.81.04-83.61-.08-125.42,0-2.98.6-3.58,3.58-3.58,82.94.1,165.88.1,248.83,0,2.98,0,3.59.6,3.58,3.58-.11,56.13-.08,112.26-.08,168.39-1.94,1.71-4.34,1.44-6.64,1.48-2.99.05-5.99-.05-8.97.04-1.59.05-3.8-.58-4.49,1.17-.67,1.68,1.63,2.15,2.6,3.16,1.65,1.71,1.94,3.81,1.97,5.99.09,9.97-.06,19.95.08,29.92.06,3.87-1.86,6.42-5.21,9.02,4.98,1.18,9.29.49,13.53.7,2.46.12,5.04-.33,7.14,1.49Z"/>
  <path class="cls-15" d="M329.84,211.09c-4.76-5.92-8.63-12.6-14.88-17.22-.23-.03-.47-.05-.7-.08-7.38-6.11-14.56-12.49-23.05-17.12-2.91-1.59-5.8-3.2-8.91-4.37-2.21-.83-4.47-1.3-6.81-.77-1.58.36-3.74.31-4.26,2.02-.51,1.67,1.54,2.37,2.65,3.19,6.41,4.78,11.55,10.9,17.39,16.27,2.04,1.6,5.44-.39,6.93,2.62-.25,1.54-2.07,1.5-2.76,2.68,5.19,6.74,10.11,13.65,13.74,21.39.6,1.28,1.02,3.15,2.92,2.95,1.64-.17,2.35-1.74,3-3.09,2.68-5.57,1.36-11.43,1.13-17.21.25-.71.54-1.37,1.51-1.11,2.98,8.11,4.86,16.18-.08,24.32-1.35,2.23-4.38,3.19-4.54,6.24.43,1.07-.1,1.27-1.01,1.11-.63-.98-1.53-1.19-2.59-.9-15.3,4.21-27.14-2.4-37.94-12.19-2.97-2.69-5.61-5.74-7.56-9.22-1.51-2.69-3-2.74-5.58-1.55-11.92,5.52-23.42,11.8-34.49,18.88-1.73.55-1,2.87-2.55,3.56-11.02,6.57-20.93,14.66-30.56,23.02-13.28,11.51-26.04,23.6-36.91,37.52-.81,1.04-1.73,2.03-3.18,2.22-.81-.21-1.2-.8-1.38-1.57-.2-1.99,1-3.47,1.9-5.04,14.21-24.86,33.96-44.54,57.08-61.07,1.35-.97,2.71-1.94,4.16-2.76,2.75-1.56,3.46-3.62,2.43-6.68-2.5-7.48-3.35-15.2-3.23-23.09.17-11.25.67-13.23,8.96-27.73-6.64-.03-12.71,1.55-18.43,4.14-24.4,11.1-35.29,31.08-36.87,56.99-.28,4.64.31,9.31-.31,13.95-.46.99-.79,2.18-2.32,1.49-3.75-5.31-2.85-11.3-2.57-17.21.28-7.47.55-14.93,2.09-22.29,1.53-7.31,4.52-14.08,8.13-20.81-2.42-.58-3.27.9-4.29,1.76-24.82,21-38.2,47.57-39.27,80.23-.34,10.49-.07,20.92,1.32,31.32.17,1.1,1.52,2.56-.88,2.89-2.5-6.41-2.43-13.48-5.17-19.82v-27.98c2.24-3.09,1.97-6.89,2.71-10.36,9.51-44.52,46.22-78.82,92.64-86.36,43.99-7.15,90.67,15.01,112.92,53.62.33.57.56,1.2.84,1.8.24,1.13-.26,1.55-1.35,1.38Z"/>
  <path class="cls-18" d="M377.9,346.94c-6.64.03-13.27.08-19.91.08-1.54,0-3.41.56-3.43-2.19-.02-2.08.58-3.09,2.77-3,2.66.11,3.22-1.42,3.21-3.82-.09-11.62-.07-23.23,0-34.85.01-2.15-.4-3.49-2.94-3.44-2.22.05-3.13-1.16-3.04-3.49.12-3.14,2.35-2.17,3.93-2.2,6.47-.09,12.94-.05,19.41-.07v5c-3.77,2.39-4.75,5.82-4.6,10.17.3,8.13.25,16.28.01,24.42-.11,3.9.81,6.81,4.58,8.38v5Z"/>
  <path class="cls-6" d="M377.9,341.94c-4.91.68-6.57-1.16-6.31-6.33.48-9.45.42-18.95.02-28.4-.21-4.97.61-8.21,6.29-8.25v42.97Z"/>
  <path class="cls-14" d="M160.16,225.7c.99,5.75,1.98,11.5,2.97,17.25,1.7,2.58,1.63,5.71,2.65,8.49.99,2.67,1.34,5.58,2.87,8.05.41.55.76-.55.32-.05-.15.17-.29.1-.45-.2-1.45-2.74-1.92-5.82-2.97-8.71-.93-3.15-1.39-6.36-1.37-9.64-1.92-20.71,2.13-39.78,15.98-55.92,11.34-13.22,25.89-19.78,43.31-20.2.06.63.24,1.08.11,1.23-13.92,14.61-12.34,31.83-7.69,49.18,1.41,5.27.45,7.64-3.96,10.61-24.99,16.9-45.87,37.82-60.75,64.32-.49.87-.86,1.79-1.29,2.69-.3.87-.19,1.84-.65,2.67.6-.5,1.04-1.19,1.76-1.56,18.35-24.04,41.1-43.36,65.51-60.86,1.36-.97,2.47-2.84,4.66-2.22,2.72,2.71,3.24,6.65,5.44,9.65.76,1.52,1.82,2.9,2.42,4.49-.71-1.67-1.61-3.24-2.51-4.82-.44-1.37-2.44-2.31-1.14-4.15,2.31-2.5,3.23-3.11,4.92,1.11,2.16,5.37,6.09,10.05,9.39,14.94,2.05,3.03,3.95,6.21.91,9.35-2.09,2.16-7.18.02-9.34-4.14-3.2-6.15-8.3-11.19-10.31-18.02-.64-2.18-1.86-2.39-3.72-1.03-7.02,5.12-13.86,10.48-20.76,15.71-3.72,2.81-5.91,8.77-12.07,8.22-1.04-.09-1.75.79-2.14,1.8-3.25,8.44-9.44,13.93-17.3,18.1-3.08,1.63-3.02,6.05-5.59,8.71-3.76,3.89-6.84,8.43-9.2,13.44-1.38,2.93-4.03,4.67-7.33,2.56-3.31-2.11-2.34-4.53-.66-7.61,4.48-8.22,7.22-17.61,13.72-24.46,8.05-8.49,8.67-17.07,4.05-27.28-1.99-4.41-2.23-9.61-3.26-14.45-.71-3.32,2.93-4.56,3.5-7.27Z"/>
  <path class="cls-20" d="M265.86,318.34c8.67,3.08,11.33,6.42,11.12,13.57-.21,7.03-4.47,12.15-11.75,14.29-3.72,1.1-7.53,1.33-11.36,1.28-6.32-.07-12.64-.25-18.96-.44-1.35-.04-3.18.61-3.24-1.85-.04-1.73-.18-3.45,2.35-3.36,3.29.11,3.05-2.17,3.05-4.42-.03-11.15-.03-22.3,0-33.45,0-2.19.35-4.37-3.02-4.36-2.38,0-2.19-1.92-2.19-3.64,0-2.48,1.79-1.92,3.17-1.95,7.15-.13,14.31-.43,21.46-.25,6.34.16,13.21.28,16.05,7.52,2.84,7.25-.19,12.91-6.67,17.06Z"/>
  <path class="cls-20" d="M203.11,319.44c2.66,0,5.33-.04,7.99.02,1.24.03,3-.46,3.15,1.46.11,1.46,1.04,3.59-1.33,4.2-2.23.57-2.24,2.1-2.18,3.83.04,1,0,2,0,3,0,12.75.02,12.84-12.45,15.15-10.95,2.02-21.1.83-28.24-8.95-6.47-8.86-6.57-24.12-.51-33.64,3.8-5.98,9.48-9.17,16.33-10.45,4.8-.9,9.61-.9,14.41-.09,11.71,1.98,9.91-.33,9.4,11.71-.1,2.31-.25,4.27-3.52,4.01-2.55-.2-4.8.22-5.35-3.47-.37-2.49.33-6.11-3.55-6.92-4.5-.94-8.97-1.13-12.85,1.95-2.56,2.03-4.21,4.75-5.07,7.85-2.32,8.42-2.01,16.81.89,25.04,1.67,4.74,4.85,7.86,10.14,8.38,6.8.66,9.32-1.54,9.32-8.28,0-1.33-.16-2.69.03-3.99.49-3.29-.7-5.05-4.13-4.98-2.43.05-3.59-.82-3.43-3.52.18-3.1,2.33-2.2,3.96-2.28,2.33-.11,4.66-.03,6.99-.03Z"/>
  <path class="cls-20" d="M315.37,347.05c-5.65,0-11.31.01-16.96,0-1.46,0-3.06.3-3.12-2.07-.05-1.98.38-3.22,2.67-3.15,2.87.09,2.99-1.86,2.99-4.04-.03-11.48-.07-22.95.04-34.43.02-2.42-.47-3.72-3.18-3.7-2.29.01-2.41-1.72-2.37-3.54.05-2.27,1.57-2.12,3.11-2.12,5.82.01,11.64.02,17.46,0,1.64,0,2.86.12,2.9,2.32.04,2.05-.62,3.38-2.67,3.26-4.09-.24-4.29,2.09-4.24,5.29.15,10.64.21,21.29-.04,31.93-.08,3.62,1.07,4.36,4.48,4.25,9.65-.3,9.69-.12,12.8-9.28.84-2.48,1.4-4.56,4.97-3.95,2.48.42,3.04,1.18,2.67,3.47-.82,5.06.18,11.6-2.65,14.83-2.73,3.11-9.42.65-14.36.94-1.49.09-2.99.01-4.49.01v-.02Z"/>
  <path class="cls-10" d="M329.84,211.09c.45-.46.9-.92,1.35-1.38,2.67,3.36,4.3,7.26,5.8,11.22.38.94,1.01,1.98-.84,1.97l-6.31-11.81Z"/>
  <path class="cls-9" d="M336.15,222.89c.28-.66.56-1.31.84-1.97,2.43,4.41,4.05,9.11,5.03,14.05.34,1.01-.07,1.22-.97.91-1.63-4.33-3.27-8.66-4.9-12.99Z"/>
  <path class="cls-12" d="M312.11,232.93c.34-.37.67-.74,1.01-1.11,2.32,3.68,3.13,7.86,4,12.03.41,1.03-.08,1.22-.97,1.03-1.35-3.98-2.7-7.96-4.05-11.94Z"/>
  <path class="cls-3" d="M225.36,236c.56,1.32,1.13,2.65,1.69,3.97.41,1.04-.06,1.2-.94.93-1.65-3.36-3.3-6.71-4.94-10.07,1.06-.83.72-3.01,2.78-2.88-2.02,3.12.32,5.48,1.42,8.05Z"/>
  <path class="cls-2" d="M341.05,235.88c.32-.3.65-.61.97-.91,2.07,4.15,2.31,8.64,2.23,13.22-1.07-4.1-2.14-8.2-3.2-12.31Z"/>
  <path class="cls-19" d="M319.11,250.9c1.27,3.32,1.21,6.78,1.24,10.27-2.13-2.41-1.27-5.59-2.36-8.24.71-.49.16-1.67,1.12-2.03Z"/>
  <path class="cls-7" d="M127.26,298.81c1.09-.72.56-1.94.88-2.89,1.03,3.75,2.05,7.51,3.08,11.26-2.47-2.38-3.22-5.37-3.95-8.37Z"/>
  <path class="cls-13" d="M319.11,250.9c-.17.79-.2,1.66-1.12,2.03-.61-2.69-1.23-5.38-1.84-8.06.32-.34.65-.68.97-1.03,1.34,2.16,1.37,4.7,1.99,7.06Z"/>
  <path class="cls-11" d="M317.74,201.25c-.27.26-.54.52-.81.78-4-2.84-4.6-5.34-1.94-8.07,0,0-.03-.11-.03-.11.02,2.81,2.54,4.67,2.78,7.39Z"/>
  <path class="cls-14" d="M237.78,165.9c7.64,1.48,14.5,3.95,21.11,7.13,1.59.76.92,1.75.35,2.85-3.75,7.24-3.64,14.75-1.22,22.28.8,2.5.65,3.82-2.12,4.76-11.68,4-22.68,9.51-33.25,15.85-2.59,1.55-3.56,1.31-4.16-1.8-2.19-11.27-2.74-22.43,1.37-33.42,2.68-7.15,7.34-12.58,14.08-16.16,1.29-.69,2.74-1.08,3.82-1.49Z"/>
  <path class="cls-14" d="M315,193.97c-2.13,3.36,1.04,5.44,1.94,8.07,1.48,6.57,2.53,13.15-1.35,19.29-3.06,4.84-4.55,4.71-7.06-.38-4.11-8.35-9.35-15.98-15.21-23.63,1.75-.54,3.15-.98,4.56-1.41,1.55-1.23,3.52-.77,4.65-1.18-3.8.1-8.17.26-12.46-.94-6.4-7.64-14.02-13.97-22.26-20.18,4.76-3.58,9.68-4.81,14.68-2.6,12.34,5.45,23.51,12.71,32.5,22.97Z"/>
  <path class="cls-14" d="M302.8,227.18c-13.24-2.15-23.12-10.29-31.26-21.07-1.2-1.59-.33-2.39,1.17-2.87,5.2-1.69,10.4-3.35,15.61-5.03,2.26-.73,3.34.88,4.47,2.3,5.26,6.65,9.89,13.72,13.85,21.21.73,1.38,2.47,2.82,1.45,4.44-.98,1.54-3.05.75-5.29,1.02Z"/>
  <path class="cls-6" d="M287.52,194.56c-6.66,1.49-12.33,2.69-17.97,4.05-1.51.36-2.66.32-3.29-1.21-2.41-5.89-4.59-11.82-2.35-18.31.5-1.45.82-3.1,2.98-1.71,7.38,4.76,14.22,10.15,20.63,17.18Z"/>
  <path class="cls-4" d="M250.26,163.34c7.9-.73,14.96.9,22.32,3.44-10.32,4.59-11.78,4.36-22.32-3.44Z"/>
  <path class="cls-16" d="M290.07,193.79h14.91c-2.17,1.82-4.52,2.45-7.1,2.11-2.16-2.33-5.84.91-7.81-2.11Z"/>
  <path class="cls-8" d="M165.23,251.8c-.83-2.92-2.09-5.74-2.1-8.85.35-.69.71-1.37,1.06-2.06.66,3.35,1.32,6.71,1.98,10.06.34,1-.04,1.21-.94.85Z"/>
  <path class="cls-1" d="M151,293.92c-.66,1.86-1.65,3.48-3.67,5.01.12-2.66,1.19-4.45,2.56-6.12.37.37.74.74,1.1,1.11Z"/>
  <path class="cls-5" d="M226.11,240.91c.31-.31.63-.62.94-.93,1.33,2.32,2.66,4.64,3.99,6.96-2.6-1.38-3.99-3.54-4.93-6.03Z"/>
  <path class="cls-17" d="M165.23,251.8c.31-.28.63-.57.94-.85,1,2.99,2.01,5.98,3.01,8.97-2.54-2.24-3.06-5.26-3.95-8.12Z"/>
  <path class="cls-6" d="M248.09,332.18c0-.5-.16-1.07.03-1.48,1.2-2.63-2.9-7.51,3.08-8.04,9.24-.83,13.01,1.38,13.73,7.51.72,6.1-2.2,10.75-7.38,11.74-8.55,1.64-9.49.67-9.47-9.74Z"/>
  <path class="cls-21" d="M248.06,307.96c0-.66-.18-1.39.03-1.98.91-2.55-2.4-7.14,3.71-7.22,7.35-.1,10.07,1.67,10.52,7.45.62,7.88-4.16,12.06-12.07,10.79-1.79-.29-2.18-1.05-2.14-2.58.05-2.15.01-4.31.01-6.46h-.06Z"/>
</svg>