<?xml version="1.0" standalone="no"?>
<!DOCTYPE svg PUBLIC "-//W3C//DTD SVG 20010904//EN"
 "http://www.w3.org/TR/2001/REC-SVG-20010904/DTD/svg10.dtd">
<svg version="1.0" xmlns="http://www.w3.org/2000/svg"
 width="300.000000pt" height="273.000000pt" viewBox="0 0 300.000000 273.000000"
 preserveAspectRatio="xMidYMid meet">
<metadata>
Created by potrace 1.10, written by Peter Selinger 2001-2011
</metadata>
<g transform="translate(0.000000,273.000000) scale(0.100000,-0.100000)"
fill="#000000" stroke="none">
<path d="M500 2160 l0 -401 86 3 85 3 -1 313 -1 312 831 0 831 0 -1 -312 -1
-313 85 -3 86 -3 0 401 0 400 -1000 0 -1000 0 0 -400z m1948 355 c10 -3 12
-80 10 -357 l-3 -353 -45 0 -45 0 -2 275 c-2 151 -5 285 -8 297 -11 48 0 47
-857 48 l-806 0 -26 -24 -26 -24 -2 -286 -3 -286 -45 0 -45 0 0 355 0 355 45
5 c57 6 1841 2 1858 -5z"/>
<path d="M847 1993 l2 -228 86 -3 86 -3 -3 146 -3 145 115 0 115 0 0 -655 0
-655 -142 0 -143 0 0 -85 0 -85 228 0 227 0 0 825 0 825 -285 0 -285 0 2 -227z
m530 -595 l-2 -783 -190 0 -190 0 -3 30 c-4 54 6 60 130 63 98 3 116 6 136 25
l22 20 0 642 0 642 -25 25 c-24 24 -30 25 -126 23 -89 -3 -103 -6 -124 -25
-23 -21 -25 -31 -27 -139 l-3 -116 -45 0 -45 0 -3 175 c-1 96 0 180 2 187 4
10 60 13 251 13 l245 0 -3 -782z"/>
<path d="M1585 1395 l0 -825 228 0 227 0 0 85 0 85 -142 0 -143 0 0 655 0 655
115 0 115 0 -3 -145 -3 -146 86 3 86 3 2 228 2 227 -285 0 -285 0 0 -825z
m530 763 c3 -13 4 -97 3 -188 l-3 -165 -45 0 -45 0 -5 115 c-3 63 -10 123 -16
134 -15 25 -80 35 -176 27 -62 -5 -83 -11 -94 -26 -12 -16 -14 -129 -14 -656
l0 -638 23 -25 c21 -24 29 -25 136 -28 l115 -3 7 -27 c4 -15 5 -37 2 -47 -5
-19 -16 -20 -157 -23 -83 -2 -167 -1 -186 2 l-35 5 -3 770 c-1 424 0 776 3
783 3 9 62 12 244 12 l241 0 5 -22z"/>
<path d="M960 315 l0 -85 540 0 540 0 0 85 0 85 -540 0 -540 0 0 -85z m1029
46 c14 -9 21 -65 10 -82 -11 -18 -990 -14 -1001 4 -12 19 -9 54 5 69 11 11
106 14 495 14 264 1 485 -2 491 -5z"/>
</g>
</svg>
